<svg width="19" height="18" viewBox="0 0 19 18" fill="none"
    xmlns="http://www.w3.org/2000/svg">
    <path d="M16.0025 12C16.0025 12 14.0025 14.17 14.0025 15.5C14.0025 16.0304 14.2132 16.5391 14.5883 16.9142C14.9634 17.2893 15.4721 17.5 16.0025 17.5C16.5329 17.5 17.0416 17.2893 17.4167 16.9142C17.7918 16.5391 18.0025 16.0304 18.0025 15.5C18.0025 14.17 16.0025 12 16.0025 12ZM2.2125 10.5L7.0025 5.71L11.7925 10.5H2.2125ZM13.5625 9.44L4.6225 0.5L3.2125 1.91L5.5925 4.29L0.4425 9.44C-0.1475 10 -0.1475 10.97 0.4425 11.56L5.9425 17.06C6.2325 17.35 6.6225 17.5 7.0025 17.5C7.3825 17.5 7.7725 17.35 8.0625 17.06L13.5625 11.56C14.1525 10.97 14.1525 10 13.5625 9.44Z" fill="currentColor"/>
</svg>
