<svg width="434" height="214" viewBox="0 0 434 214" fill="none" xmlns="http://www.w3.org/2000/svg">
<rect x="1.77545" y="1.14417" width="431.165" height="211.399" rx="12" fill="#F3F6FA" stroke="#21B9B0" stroke-width="2" stroke-dasharray="14 8"/>
<path d="M102.384 139.476C103.716 139.476 104.88 139.734 105.876 140.25C106.884 140.754 107.658 141.486 108.198 142.446C108.75 143.394 109.026 144.504 109.026 145.776C109.026 147.048 108.75 148.152 108.198 149.088C107.658 150.024 106.884 150.744 105.876 151.248C104.88 151.74 103.716 151.986 102.384 151.986H98.2976V139.476H102.384ZM102.384 150.312C103.848 150.312 104.97 149.916 105.75 149.124C106.53 148.332 106.92 147.216 106.92 145.776C106.92 144.324 106.53 143.19 105.75 142.374C104.97 141.558 103.848 141.15 102.384 141.15H100.35V150.312H102.384ZM113.111 143.508C113.411 143.004 113.807 142.614 114.299 142.338C114.803 142.05 115.397 141.906 116.081 141.906V144.03H115.559C114.755 144.03 114.143 144.234 113.723 144.642C113.315 145.05 113.111 145.758 113.111 146.766V151.986H111.059V142.068H113.111V143.508ZM122.27 152.148C121.334 152.148 120.488 151.938 119.732 151.518C118.976 151.086 118.382 150.486 117.95 149.718C117.518 148.938 117.302 148.038 117.302 147.018C117.302 146.01 117.524 145.116 117.968 144.336C118.412 143.556 119.018 142.956 119.786 142.536C120.554 142.116 121.412 141.906 122.36 141.906C123.308 141.906 124.166 142.116 124.934 142.536C125.702 142.956 126.308 143.556 126.752 144.336C127.196 145.116 127.418 146.01 127.418 147.018C127.418 148.026 127.19 148.92 126.734 149.7C126.278 150.48 125.654 151.086 124.862 151.518C124.082 151.938 123.218 152.148 122.27 152.148ZM122.27 150.366C122.798 150.366 123.29 150.24 123.746 149.988C124.214 149.736 124.592 149.358 124.88 148.854C125.168 148.35 125.312 147.738 125.312 147.018C125.312 146.298 125.174 145.692 124.898 145.2C124.622 144.696 124.256 144.318 123.8 144.066C123.344 143.814 122.852 143.688 122.324 143.688C121.796 143.688 121.304 143.814 120.848 144.066C120.404 144.318 120.05 144.696 119.786 145.2C119.522 145.692 119.39 146.298 119.39 147.018C119.39 148.086 119.66 148.914 120.2 149.502C120.752 150.078 121.442 150.366 122.27 150.366ZM131.498 143.526C131.846 143.07 132.32 142.686 132.92 142.374C133.52 142.062 134.198 141.906 134.954 141.906C135.818 141.906 136.604 142.122 137.312 142.554C138.032 142.974 138.596 143.568 139.004 144.336C139.412 145.104 139.616 145.986 139.616 146.982C139.616 147.978 139.412 148.872 139.004 149.664C138.596 150.444 138.032 151.056 137.312 151.5C136.604 151.932 135.818 152.148 134.954 152.148C134.198 152.148 133.526 151.998 132.938 151.698C132.35 151.386 131.87 151.002 131.498 150.546V156.702H129.446V142.068H131.498V143.526ZM137.528 146.982C137.528 146.298 137.384 145.71 137.096 145.218C136.82 144.714 136.448 144.336 135.98 144.084C135.524 143.82 135.032 143.688 134.504 143.688C133.988 143.688 133.496 143.82 133.028 144.084C132.572 144.348 132.2 144.732 131.912 145.236C131.636 145.74 131.498 146.334 131.498 147.018C131.498 147.702 131.636 148.302 131.912 148.818C132.2 149.322 132.572 149.706 133.028 149.97C133.496 150.234 133.988 150.366 134.504 150.366C135.032 150.366 135.524 150.234 135.98 149.97C136.448 149.694 136.82 149.298 137.096 148.782C137.384 148.266 137.528 147.666 137.528 146.982ZM145.637 146.982C145.637 145.986 145.841 145.104 146.249 144.336C146.669 143.568 147.233 142.974 147.941 142.554C148.661 142.122 149.453 141.906 150.317 141.906C151.097 141.906 151.775 142.062 152.351 142.374C152.939 142.674 153.407 143.052 153.755 143.508V142.068H155.825V151.986H153.755V150.51C153.407 150.978 152.933 151.368 152.333 151.68C151.733 151.992 151.049 152.148 150.281 152.148C149.429 152.148 148.649 151.932 147.941 151.5C147.233 151.056 146.669 150.444 146.249 149.664C145.841 148.872 145.637 147.978 145.637 146.982ZM153.755 147.018C153.755 146.334 153.611 145.74 153.323 145.236C153.047 144.732 152.681 144.348 152.225 144.084C151.769 143.82 151.277 143.688 150.749 143.688C150.221 143.688 149.729 143.82 149.273 144.084C148.817 144.336 148.445 144.714 148.157 145.218C147.881 145.71 147.743 146.298 147.743 146.982C147.743 147.666 147.881 148.266 148.157 148.782C148.445 149.298 148.817 149.694 149.273 149.97C149.741 150.234 150.233 150.366 150.749 150.366C151.277 150.366 151.769 150.234 152.225 149.97C152.681 149.706 153.047 149.322 153.323 148.818C153.611 148.302 153.755 147.702 153.755 147.018ZM166.796 152.148C166.016 152.148 165.314 152.01 164.69 151.734C164.078 151.446 163.592 151.062 163.232 150.582C162.872 150.09 162.68 149.544 162.656 148.944H164.78C164.816 149.364 165.014 149.718 165.374 150.006C165.746 150.282 166.208 150.42 166.76 150.42C167.336 150.42 167.78 150.312 168.092 150.096C168.416 149.868 168.578 149.58 168.578 149.232C168.578 148.86 168.398 148.584 168.038 148.404C167.69 148.224 167.132 148.026 166.364 147.81C165.62 147.606 165.014 147.408 164.546 147.216C164.078 147.024 163.67 146.73 163.322 146.334C162.986 145.938 162.818 145.416 162.818 144.768C162.818 144.24 162.974 143.76 163.286 143.328C163.598 142.884 164.042 142.536 164.618 142.284C165.206 142.032 165.878 141.906 166.634 141.906C167.762 141.906 168.668 142.194 169.352 142.77C170.048 143.334 170.42 144.108 170.468 145.092H168.416C168.38 144.648 168.2 144.294 167.876 144.03C167.552 143.766 167.114 143.634 166.562 143.634C166.022 143.634 165.608 143.736 165.32 143.94C165.032 144.144 164.888 144.414 164.888 144.75C164.888 145.014 164.984 145.236 165.176 145.416C165.368 145.596 165.602 145.74 165.878 145.848C166.154 145.944 166.562 146.07 167.102 146.226C167.822 146.418 168.41 146.616 168.866 146.82C169.334 147.012 169.736 147.3 170.072 147.684C170.408 148.068 170.582 148.578 170.594 149.214C170.594 149.778 170.438 150.282 170.126 150.726C169.814 151.17 169.37 151.518 168.794 151.77C168.23 152.022 167.564 152.148 166.796 152.148ZM181.901 146.784C181.901 147.156 181.877 147.492 181.829 147.792H174.251C174.311 148.584 174.605 149.22 175.133 149.7C175.661 150.18 176.309 150.42 177.077 150.42C178.181 150.42 178.961 149.958 179.417 149.034H181.631C181.331 149.946 180.785 150.696 179.993 151.284C179.213 151.86 178.241 152.148 177.077 152.148C176.129 152.148 175.277 151.938 174.521 151.518C173.777 151.086 173.189 150.486 172.757 149.718C172.337 148.938 172.127 148.038 172.127 147.018C172.127 145.998 172.331 145.104 172.739 144.336C173.159 143.556 173.741 142.956 174.485 142.536C175.241 142.116 176.105 141.906 177.077 141.906C178.013 141.906 178.847 142.11 179.579 142.518C180.311 142.926 180.881 143.502 181.289 144.246C181.697 144.978 181.901 145.824 181.901 146.784ZM179.759 146.136C179.747 145.38 179.477 144.774 178.949 144.318C178.421 143.862 177.767 143.634 176.987 143.634C176.279 143.634 175.673 143.862 175.169 144.318C174.665 144.762 174.365 145.368 174.269 146.136H179.759ZM185.973 143.508C186.273 143.004 186.669 142.614 187.161 142.338C187.665 142.05 188.259 141.906 188.943 141.906V144.03H188.421C187.617 144.03 187.005 144.234 186.585 144.642C186.177 145.05 185.973 145.758 185.973 146.766V151.986H183.921V142.068H185.973V143.508ZM194.663 150.15L197.471 142.068H199.649L195.869 151.986H193.421L189.659 142.068H191.855L194.663 150.15ZM202.244 140.754C201.872 140.754 201.56 140.628 201.308 140.376C201.056 140.124 200.93 139.812 200.93 139.44C200.93 139.068 201.056 138.756 201.308 138.504C201.56 138.252 201.872 138.126 202.244 138.126C202.604 138.126 202.91 138.252 203.162 138.504C203.414 138.756 203.54 139.068 203.54 139.44C203.54 139.812 203.414 140.124 203.162 140.376C202.91 140.628 202.604 140.754 202.244 140.754ZM203.252 142.068V151.986H201.2V142.068H203.252ZM205.262 147.018C205.262 145.998 205.466 145.104 205.874 144.336C206.294 143.556 206.87 142.956 207.602 142.536C208.334 142.116 209.174 141.906 210.122 141.906C211.322 141.906 212.312 142.194 213.092 142.77C213.884 143.334 214.418 144.144 214.694 145.2H212.48C212.3 144.708 212.012 144.324 211.616 144.048C211.22 143.772 210.722 143.634 210.122 143.634C209.282 143.634 208.61 143.934 208.106 144.534C207.614 145.122 207.368 145.95 207.368 147.018C207.368 148.086 207.614 148.92 208.106 149.52C208.61 150.12 209.282 150.42 210.122 150.42C211.31 150.42 212.096 149.898 212.48 148.854H214.694C214.406 149.862 213.866 150.666 213.074 151.266C212.282 151.854 211.298 152.148 210.122 152.148C209.174 152.148 208.334 151.938 207.602 151.518C206.87 151.086 206.294 150.486 205.874 149.718C205.466 148.938 205.262 148.038 205.262 147.018ZM225.829 146.784C225.829 147.156 225.805 147.492 225.757 147.792H218.179C218.239 148.584 218.533 149.22 219.061 149.7C219.589 150.18 220.237 150.42 221.005 150.42C222.109 150.42 222.889 149.958 223.345 149.034H225.559C225.259 149.946 224.713 150.696 223.921 151.284C223.141 151.86 222.169 152.148 221.005 152.148C220.057 152.148 219.205 151.938 218.449 151.518C217.705 151.086 217.117 150.486 216.685 149.718C216.265 148.938 216.055 148.038 216.055 147.018C216.055 145.998 216.259 145.104 216.667 144.336C217.087 143.556 217.669 142.956 218.413 142.536C219.169 142.116 220.033 141.906 221.005 141.906C221.941 141.906 222.775 142.11 223.507 142.518C224.239 142.926 224.809 143.502 225.217 144.246C225.625 144.978 225.829 145.824 225.829 146.784ZM223.687 146.136C223.675 145.38 223.405 144.774 222.877 144.318C222.349 143.862 221.695 143.634 220.915 143.634C220.207 143.634 219.601 143.862 219.097 144.318C218.593 144.762 218.293 145.368 218.197 146.136H223.687ZM231.84 146.982C231.84 145.986 232.044 145.104 232.452 144.336C232.872 143.568 233.436 142.974 234.144 142.554C234.864 142.122 235.656 141.906 236.52 141.906C237.3 141.906 237.978 142.062 238.554 142.374C239.142 142.674 239.61 143.052 239.958 143.508V142.068H242.028V151.986H239.958V150.51C239.61 150.978 239.136 151.368 238.536 151.68C237.936 151.992 237.252 152.148 236.484 152.148C235.632 152.148 234.852 151.932 234.144 151.5C233.436 151.056 232.872 150.444 232.452 149.664C232.044 148.872 231.84 147.978 231.84 146.982ZM239.958 147.018C239.958 146.334 239.814 145.74 239.526 145.236C239.25 144.732 238.884 144.348 238.428 144.084C237.972 143.82 237.48 143.688 236.952 143.688C236.424 143.688 235.932 143.82 235.476 144.084C235.02 144.336 234.648 144.714 234.36 145.218C234.084 145.71 233.946 146.298 233.946 146.982C233.946 147.666 234.084 148.266 234.36 148.782C234.648 149.298 235.02 149.694 235.476 149.97C235.944 150.234 236.436 150.366 236.952 150.366C237.48 150.366 237.972 150.234 238.428 149.97C238.884 149.706 239.25 149.322 239.526 148.818C239.814 148.302 239.958 147.702 239.958 147.018ZM244.039 147.018C244.039 145.998 244.243 145.104 244.651 144.336C245.071 143.556 245.647 142.956 246.379 142.536C247.111 142.116 247.951 141.906 248.899 141.906C250.099 141.906 251.089 142.194 251.869 142.77C252.661 143.334 253.195 144.144 253.471 145.2H251.257C251.077 144.708 250.789 144.324 250.393 144.048C249.997 143.772 249.499 143.634 248.899 143.634C248.059 143.634 247.387 143.934 246.883 144.534C246.391 145.122 246.145 145.95 246.145 147.018C246.145 148.086 246.391 148.92 246.883 149.52C247.387 150.12 248.059 150.42 248.899 150.42C250.087 150.42 250.873 149.898 251.257 148.854H253.471C253.183 149.862 252.643 150.666 251.851 151.266C251.059 151.854 250.075 152.148 248.899 152.148C247.951 152.148 247.111 151.938 246.379 151.518C245.647 151.086 245.071 150.486 244.651 149.718C244.243 148.938 244.039 148.038 244.039 147.018ZM254.832 147.018C254.832 145.998 255.036 145.104 255.444 144.336C255.864 143.556 256.44 142.956 257.172 142.536C257.904 142.116 258.744 141.906 259.692 141.906C260.892 141.906 261.882 142.194 262.662 142.77C263.454 143.334 263.988 144.144 264.264 145.2H262.05C261.87 144.708 261.582 144.324 261.186 144.048C260.79 143.772 260.292 143.634 259.692 143.634C258.852 143.634 258.18 143.934 257.676 144.534C257.184 145.122 256.938 145.95 256.938 147.018C256.938 148.086 257.184 148.92 257.676 149.52C258.18 150.12 258.852 150.42 259.692 150.42C260.88 150.42 261.666 149.898 262.05 148.854H264.264C263.976 149.862 263.436 150.666 262.644 151.266C261.852 151.854 260.868 152.148 259.692 152.148C258.744 152.148 257.904 151.938 257.172 151.518C256.44 151.086 255.864 150.486 255.444 149.718C255.036 148.938 254.832 148.038 254.832 147.018ZM270.611 152.148C269.675 152.148 268.829 151.938 268.073 151.518C267.317 151.086 266.723 150.486 266.291 149.718C265.859 148.938 265.643 148.038 265.643 147.018C265.643 146.01 265.865 145.116 266.309 144.336C266.753 143.556 267.359 142.956 268.127 142.536C268.895 142.116 269.753 141.906 270.701 141.906C271.649 141.906 272.507 142.116 273.275 142.536C274.043 142.956 274.649 143.556 275.093 144.336C275.537 145.116 275.759 146.01 275.759 147.018C275.759 148.026 275.531 148.92 275.075 149.7C274.619 150.48 273.995 151.086 273.203 151.518C272.423 151.938 271.559 152.148 270.611 152.148ZM270.611 150.366C271.139 150.366 271.631 150.24 272.087 149.988C272.555 149.736 272.933 149.358 273.221 148.854C273.509 148.35 273.653 147.738 273.653 147.018C273.653 146.298 273.515 145.692 273.239 145.2C272.963 144.696 272.597 144.318 272.141 144.066C271.685 143.814 271.193 143.688 270.665 143.688C270.137 143.688 269.645 143.814 269.189 144.066C268.745 144.318 268.391 144.696 268.127 145.2C267.863 145.692 267.731 146.298 267.731 147.018C267.731 148.086 268.001 148.914 268.541 149.502C269.093 150.078 269.783 150.366 270.611 150.366ZM286.77 142.068V151.986H284.718V150.816C284.394 151.224 283.968 151.548 283.44 151.788C282.924 152.016 282.372 152.13 281.784 152.13C281.004 152.13 280.302 151.968 279.678 151.644C279.066 151.32 278.58 150.84 278.22 150.204C277.872 149.568 277.698 148.8 277.698 147.9V142.068H279.732V147.594C279.732 148.482 279.954 149.166 280.398 149.646C280.842 150.114 281.448 150.348 282.216 150.348C282.984 150.348 283.59 150.114 284.034 149.646C284.49 149.166 284.718 148.482 284.718 147.594V142.068H286.77ZM294.481 141.906C295.261 141.906 295.957 142.068 296.569 142.392C297.193 142.716 297.679 143.196 298.027 143.832C298.375 144.468 298.549 145.236 298.549 146.136V151.986H296.515V146.442C296.515 145.554 296.293 144.876 295.849 144.408C295.405 143.928 294.799 143.688 294.031 143.688C293.263 143.688 292.651 143.928 292.195 144.408C291.751 144.876 291.529 145.554 291.529 146.442V151.986H289.477V142.068H291.529V143.202C291.865 142.794 292.291 142.476 292.807 142.248C293.335 142.02 293.893 141.906 294.481 141.906ZM303.561 143.742V149.232C303.561 149.604 303.645 149.874 303.813 150.042C303.993 150.198 304.293 150.276 304.713 150.276H305.973V151.986H304.353C303.429 151.986 302.721 151.77 302.229 151.338C301.737 150.906 301.491 150.204 301.491 149.232V143.742H300.321V142.068H301.491V139.602H303.561V142.068H305.973V143.742H303.561ZM316.698 143.742H314.862V151.986H312.792V143.742H311.622V142.068H312.792V141.366C312.792 140.226 313.092 139.398 313.692 138.882C314.304 138.354 315.258 138.09 316.554 138.09V139.8C315.93 139.8 315.492 139.92 315.24 140.16C314.988 140.388 314.862 140.79 314.862 141.366V142.068H316.698V143.742ZM319.56 140.754C319.188 140.754 318.876 140.628 318.624 140.376C318.372 140.124 318.246 139.812 318.246 139.44C318.246 139.068 318.372 138.756 318.624 138.504C318.876 138.252 319.188 138.126 319.56 138.126C319.92 138.126 320.226 138.252 320.478 138.504C320.73 138.756 320.856 139.068 320.856 139.44C320.856 139.812 320.73 140.124 320.478 140.376C320.226 140.628 319.92 140.754 319.56 140.754ZM320.568 142.068V151.986H318.516V142.068H320.568ZM325.314 138.666V151.986H323.262V138.666H325.314ZM337.099 146.784C337.099 147.156 337.075 147.492 337.027 147.792H329.449C329.509 148.584 329.803 149.22 330.331 149.7C330.859 150.18 331.507 150.42 332.275 150.42C333.379 150.42 334.159 149.958 334.615 149.034H336.829C336.529 149.946 335.983 150.696 335.191 151.284C334.411 151.86 333.439 152.148 332.275 152.148C331.327 152.148 330.475 151.938 329.719 151.518C328.975 151.086 328.387 150.486 327.955 149.718C327.535 148.938 327.325 148.038 327.325 147.018C327.325 145.998 327.529 145.104 327.937 144.336C328.357 143.556 328.939 142.956 329.683 142.536C330.439 142.116 331.303 141.906 332.275 141.906C333.211 141.906 334.045 142.11 334.777 142.518C335.509 142.926 336.079 143.502 336.487 144.246C336.895 144.978 337.099 145.824 337.099 146.784ZM334.957 146.136C334.945 145.38 334.675 144.774 334.147 144.318C333.619 143.862 332.965 143.634 332.185 143.634C331.477 143.634 330.871 143.862 330.367 144.318C329.863 144.762 329.563 145.368 329.467 146.136H334.957Z" fill="#19393B"/>
<path d="M248.129 66.1449H216.095L208.976 59.0262H191.179C187.264 59.0262 184.06 62.2297 184.06 66.1449V80.3824H255.247V73.2637C255.247 69.3484 252.044 66.1449 248.129 66.1449Z" fill="#19393B"/>
<path d="M248.129 66.1448H191.179C187.264 66.1448 184.06 69.3482 184.06 73.2635V108.857C184.06 112.772 187.264 115.976 191.179 115.976H248.129C252.044 115.976 255.247 112.772 255.247 108.857V73.2635C255.247 69.3482 252.044 66.1448 248.129 66.1448Z" fill="#1B9F97"/>
</svg>
