<svg width="115" height="36" viewBox="0 0 115 36" fill="none" xmlns="http://www.w3.org/2000/svg">
<rect x="0.69873" y="0.638428" width="33.9581" height="33.9581" rx="4.9354" fill="#FDCA40"/>
<path d="M20.0371 10.2705V12.755H13.6391V16.6905H18.542V19.131H13.6391V25.6169H10.561V10.2705H20.0371ZM23.7808 11.9855C23.2384 11.9855 22.7841 11.8169 22.4176 11.4798C22.0658 11.128 21.8899 10.6956 21.8899 10.1826C21.8899 9.66956 22.0658 9.24449 22.4176 8.90737C22.7841 8.55559 23.2384 8.3797 23.7808 8.3797C24.3231 8.3797 24.7701 8.55559 25.1219 8.90737C25.4884 9.24449 25.6716 9.66956 25.6716 10.1826C25.6716 10.6956 25.4884 11.128 25.1219 11.4798C24.7701 11.8169 24.3231 11.9855 23.7808 11.9855ZM25.2978 13.4365V25.6169H22.2197V13.4365H25.2978Z" fill="black"/>
<path d="M54.8735 9.97143V13.1224H48.2955V16.5264H53.2175V19.5854H48.2955V26.1174H44.3625V9.97143H54.8735ZM58.9186 11.9494C58.2286 11.9494 57.6613 11.7501 57.2166 11.3514C56.7873 10.9374 56.5726 10.4314 56.5726 9.83343C56.5726 9.2201 56.7873 8.7141 57.2166 8.31543C57.6613 7.90143 58.2286 7.69443 58.9186 7.69443C59.5933 7.69443 60.1453 7.90143 60.5746 8.31543C61.0193 8.7141 61.2416 9.2201 61.2416 9.83343C61.2416 10.4314 61.0193 10.9374 60.5746 11.3514C60.1453 11.7501 59.5933 11.9494 58.9186 11.9494ZM60.8736 13.2834V26.1174H56.9406V13.2834H60.8736ZM67.6569 15.4224C68.1169 14.7171 68.6919 14.1651 69.3819 13.7664C70.0719 13.3524 70.8385 13.1454 71.6819 13.1454V17.3084H70.6009C69.6195 17.3084 68.8835 17.5231 68.3929 17.9524C67.9022 18.3664 67.6569 19.1024 67.6569 20.1604V26.1174H63.7239V13.2834H67.6569V15.4224ZM85.6597 19.4934C85.6597 19.8614 85.6367 20.2448 85.5907 20.6434H76.6897C76.7511 21.4408 77.0041 22.0541 77.4487 22.4834C77.9087 22.8974 78.4684 23.1044 79.1277 23.1044C80.1091 23.1044 80.7914 22.6904 81.1747 21.8624H85.3607C85.1461 22.7058 84.7551 23.4648 84.1877 24.1394C83.6357 24.8141 82.9381 25.3431 82.0947 25.7264C81.2514 26.1098 80.3084 26.3014 79.2657 26.3014C78.0084 26.3014 76.8891 26.0331 75.9077 25.4964C74.9264 24.9598 74.1597 24.1931 73.6077 23.1964C73.0557 22.1998 72.7797 21.0344 72.7797 19.7004C72.7797 18.3664 73.0481 17.2011 73.5847 16.2044C74.1367 15.2078 74.9034 14.4411 75.8847 13.9044C76.8661 13.3678 77.9931 13.0994 79.2657 13.0994C80.5077 13.0994 81.6117 13.3601 82.5777 13.8814C83.5437 14.4028 84.2951 15.1464 84.8317 16.1124C85.3837 17.0784 85.6597 18.2054 85.6597 19.4934ZM81.6347 18.4584C81.6347 17.7838 81.4047 17.2471 80.9447 16.8484C80.4847 16.4498 79.9097 16.2504 79.2197 16.2504C78.5604 16.2504 78.0007 16.4421 77.5407 16.8254C77.0961 17.2088 76.8201 17.7531 76.7127 18.4584H81.6347ZM86.9526 19.7004C86.9526 18.3664 87.2209 17.2011 87.7576 16.2044C88.3096 15.2078 89.0686 14.4411 90.0346 13.9044C91.0159 13.3678 92.1353 13.0994 93.3926 13.0994C95.0026 13.0994 96.3443 13.5211 97.4176 14.3644C98.5063 15.2078 99.2193 16.3961 99.5566 17.9294H95.3706C95.0179 16.9481 94.3356 16.4574 93.3236 16.4574C92.6029 16.4574 92.0279 16.7411 91.5986 17.3084C91.1693 17.8604 90.9546 18.6578 90.9546 19.7004C90.9546 20.7431 91.1693 21.5481 91.5986 22.1154C92.0279 22.6674 92.6029 22.9434 93.3236 22.9434C94.3356 22.9434 95.0179 22.4528 95.3706 21.4714H99.5566C99.2193 22.9741 98.5063 24.1548 97.4176 25.0134C96.3289 25.8721 94.9873 26.3014 93.3926 26.3014C92.1353 26.3014 91.0159 26.0331 90.0346 25.4964C89.0686 24.9598 88.3096 24.1931 87.7576 23.1964C87.2209 22.1998 86.9526 21.0344 86.9526 19.7004ZM109.503 26.1174L105.593 20.7354V26.1174H101.66V9.09743H105.593V18.5044L109.48 13.2834H114.333L108.997 19.7234L114.379 26.1174H109.503Z" fill="white"/>
</svg>
