<svg width="115" height="35" viewBox="0 0 115 35" fill="none" xmlns="http://www.w3.org/2000/svg">
<path d="M53.9606 9.71679V12.4507H46.9201V16.7814H52.3154V19.467H46.9201V26.6042H43.533V9.71679H53.9606Z" fill="white"/>
<path d="M58.0801 11.6039C57.4834 11.6039 56.9834 11.4184 56.5801 11.0475C56.193 10.6604 55.9995 10.1845 55.9995 9.62001C55.9995 9.05549 56.193 8.58774 56.5801 8.21676C56.9834 7.82966 57.4834 7.63611 58.0801 7.63611C58.6769 7.63611 59.1689 7.82966 59.556 8.21676C59.9592 8.58774 60.1608 9.05549 60.1608 9.62001C60.1608 10.1845 59.9592 10.6604 59.556 11.0475C59.1689 11.4184 58.6769 11.6039 58.0801 11.6039ZM59.7495 13.2007V26.6042H56.3624V13.2007H59.7495Z" fill="white"/>
<path d="M66.4832 15.2814C66.9187 14.5717 67.4832 14.0152 68.1768 13.612C68.8865 13.2088 69.6929 13.0072 70.5962 13.0072V16.5637H69.701C68.6365 16.5637 67.83 16.8137 67.2816 17.3137C66.7493 17.8137 66.4832 18.6847 66.4832 19.9266V26.6042H63.096V13.2007H66.4832V15.2814Z" fill="white"/>
<path d="M85.3375 19.6121C85.3375 20.096 85.3052 20.5315 85.2407 20.9186H75.4421C75.5228 21.8864 75.8615 22.6444 76.4583 23.1928C77.0551 23.7412 77.789 24.0154 78.6599 24.0154C79.918 24.0154 80.8132 23.4751 81.3455 22.3944H84.9988C84.6117 23.6848 83.8697 24.7493 82.7729 25.588C81.6761 26.4106 80.3293 26.8219 78.7325 26.8219C77.4422 26.8219 76.2809 26.5397 75.2486 25.9751C74.2325 25.3945 73.4341 24.5799 72.8534 23.5315C72.2889 22.4831 72.0066 21.2734 72.0066 19.9024C72.0066 18.5153 72.2889 17.2976 72.8534 16.2492C73.4179 15.2008 74.2083 14.3943 75.2244 13.8298C76.2406 13.2652 77.4099 12.983 78.7325 12.983C80.0067 12.983 81.1439 13.2572 82.1439 13.8056C83.16 14.354 83.9423 15.1362 84.4907 16.1524C85.0552 17.1524 85.3375 18.3056 85.3375 19.6121ZM81.8294 18.6444C81.8132 17.7734 81.4987 17.0798 80.8858 16.5637C80.2729 16.0314 79.5229 15.7653 78.6357 15.7653C77.797 15.7653 77.0873 16.0233 76.5067 16.5395C75.9422 17.0395 75.5954 17.7411 75.4663 18.6444H81.8294Z" fill="white"/>
<path d="M86.9388 19.9024C86.9388 18.5153 87.2211 17.3056 87.7856 16.2734C88.3501 15.2249 89.1324 14.4185 90.1324 13.854C91.1324 13.2733 92.2776 12.983 93.568 12.983C95.2293 12.983 96.6003 13.4023 97.6809 14.2411C98.7777 15.0637 99.5116 16.225 99.8826 17.725H96.2293C96.0357 17.1443 95.7051 16.6927 95.2373 16.3701C94.7857 16.0314 94.2212 15.8621 93.5438 15.8621C92.576 15.8621 91.8099 16.2169 91.2453 16.9266C90.6808 17.6202 90.3986 18.6121 90.3986 19.9024C90.3986 21.1767 90.6808 22.1686 91.2453 22.8783C91.8099 23.5719 92.576 23.9186 93.5438 23.9186C94.9148 23.9186 95.8099 23.3057 96.2293 22.0799H99.8826C99.5116 23.5315 98.7777 24.6848 97.6809 25.5396C96.5841 26.3945 95.2131 26.8219 93.568 26.8219C92.2776 26.8219 91.1324 26.5397 90.1324 25.9751C89.1324 25.3945 88.3501 24.588 87.7856 23.5557C87.2211 22.5073 86.9388 21.2896 86.9388 19.9024Z" fill="white"/>
<path d="M110.3 26.6042L105.751 20.8944V26.6042H102.364V8.70064H105.751V18.8863L110.251 13.2007H114.655L108.751 19.9266L114.703 26.6042H110.3Z" fill="white"/>
<rect x="0.11792" y="0.25" width="33.9581" height="33.9581" rx="4.9354" fill="#23F3F3"/>
<path d="M19.4565 9.88222V12.3667H13.0585V16.3022H17.9615V18.7427H13.0585V25.2286H9.98043V9.88222H19.4565ZM23.2002 11.5971C22.6579 11.5971 22.2035 11.4286 21.837 11.0915C21.4853 10.7397 21.3094 10.3073 21.3094 9.79427C21.3094 9.28126 21.4853 8.85619 21.837 8.51907C22.2035 8.16729 22.6579 7.9914 23.2002 7.9914C23.7425 7.9914 24.1896 8.16729 24.5414 8.51907C24.9078 8.85619 25.091 9.28126 25.091 9.79427C25.091 10.3073 24.9078 10.7397 24.5414 11.0915C24.1896 11.4286 23.7425 11.5971 23.2002 11.5971ZM24.7172 13.0482V25.2286H21.6392V13.0482H24.7172Z" fill="black"/>
</svg>
