<svg width="42" height="42" viewBox="0 0 42 42" fill="none"
    xmlns="http://www.w3.org/2000/svg">
    <path d="M35.0859 0.75H7.58594C5.76257 0.75 4.01389 1.47433 2.72458 2.76364C1.43527 4.05295 0.710938 5.80164 0.710938 7.625V35.125C0.710938 36.9484 1.43527 38.697 2.72458 39.9864C4.01389 41.2757 5.76257 42 7.58594 42H35.0859C36.9093 42 38.658 41.2757 39.9473 39.9864C41.2366 38.697 41.9609 36.9484 41.9609 35.125V7.625C41.9609 5.80164 41.2366 4.05295 39.9473 2.76364C38.658 1.47433 36.9093 0.75 35.0859 0.75ZM7.58594 5.33333H35.0859C35.6937 5.33333 36.2766 5.57478 36.7064 6.00455C37.1362 6.43432 37.3776 7.01721 37.3776 7.625V26.7833L30.0443 20.5271C28.9081 19.5922 27.4823 19.081 26.0109 19.081C24.5395 19.081 23.1138 19.5922 21.9776 20.5271L5.29427 34.4375V7.625C5.29427 7.01721 5.53571 6.43432 5.96549 6.00455C6.39526 5.57478 6.97815 5.33333 7.58594 5.33333V5.33333Z" fill="currentColor"/>
    <path d="M12.1694 16.7915C14.0679 16.7915 15.6069 15.2525 15.6069 13.354C15.6069 11.4555 14.0679 9.9165 12.1694 9.9165C10.271 9.9165 8.73193 11.4555 8.73193 13.354C8.73193 15.2525 10.271 16.7915 12.1694 16.7915Z" fill="currentColor"/>
</svg>
