<svg width="21" height="20" viewBox="0 0 21 20" fill="none"
    xmlns="http://www.w3.org/2000/svg">
    <path d="M9.34739 17.2676C7.85943 19.3772 4.95485 19.9072 2.8554 18.4396C0.766144 16.972 0.276952 14.0471 1.74453 11.9171C2.63119 10.6431 3.99685 9.9603 5.39308 9.89915L5.44404 11.3565C4.51662 11.4279 3.61976 11.9069 3.03885 12.7426C2.0197 14.2102 2.33563 16.1873 3.73187 17.1759C5.1383 18.1543 7.10526 17.7772 8.12441 16.3198C8.44034 15.8612 8.62379 15.3618 8.69513 14.8522V13.8229L14.382 13.7821L14.4533 13.67C14.9935 12.7324 16.1655 12.4063 17.0827 12.9362C18 13.4662 18.3159 14.6484 17.7758 15.586C17.2356 16.5134 16.0534 16.8396 15.1362 16.3096C14.7183 16.0752 14.4228 15.6981 14.2903 15.2701L10.1423 15.2905C10.0302 15.9733 9.76524 16.6357 9.34739 17.2676ZM16.7668 9.99087C19.3452 10.3068 21.1797 12.6203 20.8638 15.158C20.5478 17.7058 18.2038 19.5097 15.6253 19.1938C14.1068 19.0103 12.8533 18.1441 12.1297 16.9415L13.3934 16.2077C13.8928 16.9924 14.7387 17.553 15.7578 17.6855C17.5413 17.8995 19.121 16.6867 19.3351 14.9847C19.5491 13.2827 18.2853 11.7234 16.5222 11.5094C15.9719 11.4483 15.4419 11.5196 14.9629 11.6929L14.0966 12.1413L11.4672 7.27993H11.243C10.1627 7.23917 9.327 6.35251 9.35758 5.29259C9.38815 4.23268 10.3054 3.40717 11.3755 3.44793C12.4456 3.50908 13.2915 4.37536 13.2609 5.43527C13.2405 5.8837 13.0673 6.29136 12.7921 6.6073L14.7285 10.1845C15.3604 9.98068 16.0534 9.90934 16.7668 9.99087ZM7.09506 7.21879C6.07591 4.82378 7.15621 2.08227 9.51045 1.0835C11.8749 0.0847368 14.6062 1.21599 15.6253 3.61099C16.2266 5.00723 16.1043 6.53595 15.4215 7.75893L14.1578 7.02515C14.5858 6.19964 14.6572 5.19068 14.2495 4.24287C13.5565 2.61223 11.7118 1.82748 10.1321 2.48993C8.54226 3.16257 7.82885 5.03781 8.52187 6.66844C8.80724 7.34108 9.28624 7.86085 9.86715 8.20736L10.2646 8.42138L7.13583 13.5069C7.1664 13.5579 7.20717 13.619 7.23775 13.7006C7.73713 14.628 7.39062 15.8 6.453 16.2994C5.52557 16.7988 4.35355 16.4319 3.84398 15.4739C3.34459 14.5261 3.6911 13.3541 4.62872 12.8547C5.02619 12.6407 5.46442 12.5897 5.88228 12.6814L8.23651 8.83923C7.75751 8.401 7.34985 7.85066 7.09506 7.21879Z" fill="currentColor"/>
</svg>
