<svg width="145" height="145" viewBox="0 0 145 145" fill="none" xmlns="http://www.w3.org/2000/svg">
<rect x="0.422607" y="0.382874" width="144" height="144" rx="20.918" fill="#23F3F3"/>
<path d="M79.6895 40.4501V50.9801H52.5725V67.6603H73.3529V78.0039H52.5725V105.494H39.5265V40.4501H79.6895ZM95.5565 47.7186C93.258 47.7186 91.3321 47.0041 89.779 45.5753C88.2881 44.0843 87.5426 42.2517 87.5426 40.0773C87.5426 37.903 88.2881 36.1014 89.779 34.6726C91.3321 33.1816 93.258 32.4361 95.5565 32.4361C97.8551 32.4361 99.7499 33.1816 101.241 34.6726C102.794 36.1014 103.57 37.903 103.57 40.0773C103.57 42.2517 102.794 44.0843 101.241 45.5753C99.7499 47.0041 97.8551 47.7186 95.5565 47.7186ZM101.986 53.8688V105.494H88.9404V53.8688H101.986Z" fill="black"/>
</svg>
